<?xml version="1.0" encoding="UTF-8" standalone="no"?>
<svg
   xmlns:dc="http://purl.org/dc/elements/1.1/"
   xmlns:cc="http://creativecommons.org/ns#"
   xmlns:rdf="http://www.w3.org/1999/02/22-rdf-syntax-ns#"
   xmlns:svg="http://www.w3.org/2000/svg"
   xmlns="http://www.w3.org/2000/svg"
   xmlns:xlink="http://www.w3.org/1999/xlink"
   version="1.1"
   viewBox="0 0 349.8 355.98"
   data-name="Layer 1"
   id="Layer_1">
  <metadata
     id="metadata1986">
    <rdf:RDF>
      <cc:Work
         rdf:about="">
        <dc:format>image/svg+xml</dc:format>
        <dc:type
           rdf:resource="http://purl.org/dc/dcmitype/StillImage" />
        <dc:title>Following the idea</dc:title>
      </cc:Work>
    </rdf:RDF>
  </metadata>
  <defs
     id="defs1925">
    <linearGradient
       gradientUnits="userSpaceOnUse"
       y2="288.34"
       x2="163.4"
       y1="288.34"
       x1="151.4"
       id="linear-gradient">
      <stop
         id="stop1906"
         offset="0.01" />
      <stop
         id="stop1908"
         stop-opacity="0.69"
         offset="0.13" />
      <stop
         id="stop1910"
         stop-opacity="0"
         offset="1" />
    </linearGradient>
    <linearGradient
       xlink:href="#linear-gradient"
       y2="231.35"
       x2="124.62"
       y1="231.35"
       x1="111.21"
       id="linear-gradient-2" />
    <linearGradient
       xlink:href="#linear-gradient"
       y2="193.43"
       x2="222.02"
       y1="181.58"
       x1="149.35"
       id="linear-gradient-3" />
    <linearGradient
       xlink:href="#linear-gradient"
       y2="200.96"
       x2="144.82"
       y1="238.52"
       x1="168.06"
       id="linear-gradient-4" />
    <linearGradient
       xlink:href="#linear-gradient"
       y2="271.91"
       x2="193.54"
       y1="246.43"
       x1="162.37"
       id="linear-gradient-5" />
    <linearGradient
       xlink:href="#linear-gradient"
       y2="135.8"
       x2="215.76"
       y1="129.08"
       x1="210.48"
       id="linear-gradient-6" />
    <radialGradient
       gradientUnits="userSpaceOnUse"
       gradientTransform="translate(6772.56 3318.63) rotate(-156.33)"
       r="23.6"
       cy="344.08"
       cx="7211.7"
       id="radial-gradient">
      <stop
         id="stop1918"
         stop-color="#fff"
         offset="0.34" />
      <stop
         id="stop1920"
         stop-opacity="0.39"
         stop-color="#fff"
         offset="1" />
    </radialGradient>
    <linearGradient
       xlink:href="#linear-gradient"
       gradientTransform="translate(1383.91 -1150.77)"
       y2="1287.02"
       x2="-1079.54"
       y1="1287.02"
       x1="-1103.21"
       id="linear-gradient-7" />
    <linearGradient
       xlink:href="#linear-gradient"
       gradientTransform="translate(1383.84 -1150.73)"
       y2="1287.16"
       x2="-1078.01"
       y1="1287.16"
       x1="-1104.47"
       id="linear-gradient-8" />
  </defs>
  <title
     id="title1927">Following the idea</title>
  <path
     id="path1929"
     style="isolation:isolate"
     opacity="0.18"
     fill="#5fcf80"
     transform="translate(-49.06 -21.81)"
     d="M397.59,170.85c-4.16,20.51-18.51,37.55-34.64,50.89-15.27,12.64-32.67,23-45.65,37.95-22.51,26-29.39,63.39-54.11,87.3-18.58,18-45.75,25-71.4,21.36a88.29,88.29,0,0,1-34.06-12.17c-14-8.65-25.46-20.79-39-30.15-11.49-7.95-24.34-13.83-35.51-22.23a85.74,85.74,0,0,1-14-13.28c-17-20.14-25.07-48-17.11-72.92C59.28,195.22,77.61,178,85.86,156c11.43-30.41,2.73-67.31,20.75-94.34,12-17.95,33.55-27.38,54.89-30.52s43.05-.93,64.61-.63a364.55,364.55,0,0,0,69.33-5.68c24.75-4.45,31.14-7.63,36.51,19.08,3,15,15.27,25.94,26.15,36.62C382.58,104.53,404.43,137.23,397.59,170.85Z" />
  <path
     id="path1931"
     style="isolation:isolate"
     opacity="0.48"
     fill="#5fcf80"
     transform="translate(-49.06 -21.81)"
     d="M295.14,160.83c-7.34,18.83,9.38,41.32.67,59.56-7,14.62-26.45,18.27-37.14,30.45-12.8,14.59-10,37.36-19.42,54.33C229.34,323,207.09,332.42,200,351.58c-2.2,5.91-3.28,13.12-8.18,16.77a88.29,88.29,0,0,1-34.06-12.17c-14-8.65-25.46-20.79-39-30.15-11.49-7.95-24.34-13.83-35.51-22.23a85.74,85.74,0,0,1-14-13.28A26.1,26.1,0,0,1,78,286.16a74.75,74.75,0,0,1,53.24-31.3c10.55-1.06,21.18.18,31.77.81q13.77.79,27.57.23c5.37-.23,11-.7,15.48-3.69,9.39-6.32,9.21-20.21,15.45-29.65,5.56-8.41,15.59-12.45,24.87-16.39s19.12-8.95,23.27-18.14c3.81-8.41,1.86-18.2,3.24-27.32,1.17-7.83,4.77-15.05,8.31-22.12,2.05-4.07,7.46-1.13,11.54.89a11.5,11.5,0,0,1,6.18,11.23C298.51,154.31,296.45,157.46,295.14,160.83Z" />
  <path
     id="path1933"
     style="isolation:isolate"
     opacity="0.48"
     fill="#5fcf80"
     transform="translate(-49.06 -21.81)"
     d="M277.9,191c-6.6,16.95,8.45,37.2.61,53.61C272.22,257.75,254.69,261,245.07,272c-11.52,13.13-9,33.63-17.48,48.91-8.92,16.09-29,24.53-35.35,41.77-2,5.33-3,11.82-7.37,15.11a79.62,79.62,0,0,1-30.66-11c-12.58-7.79-22.92-18.72-35.09-27.14-10.35-7.17-21.92-12.46-32-20a76.53,76.53,0,0,1-12.59-11.95,23.47,23.47,0,0,1,7.86-3.93,67.34,67.34,0,0,1,47.92-28.18c9.5-.94,19.07.17,28.6.73a244.64,244.64,0,0,0,24.82.21c4.84-.2,9.92-.63,13.94-3.32,8.45-5.69,8.29-18.19,13.91-26.69,5-7.57,14-11.2,22.38-14.75s17.22-8.07,21-16.33c3.42-7.57,1.67-16.39,2.9-24.6,1.06-7,20.55-46.89,23.74-53.25,1.84-3.66,7.46,0,11.13,1.87s1.83,1.43,1.39,5.5C293.77,148.21,279.08,187.94,277.9,191Z" />
  <path
     id="path1935"
     fill="#5fcf80"
     transform="translate(-49.06 -21.81)"
     d="M157.84,279a6.21,6.21,0,0,0-2.33.59,7.12,7.12,0,0,0-3.34,2.12c-1.2,1.64-.79,3.93-.24,5.89a23.33,23.33,0,0,0,2.22,5.71,10,10,0,0,0,4.38,4.17,1.49,1.49,0,0,0,.82.18,1.56,1.56,0,0,0,1-.83,8,8,0,0,0,1.11-5.3,4.42,4.42,0,0,1,0-2.31,6.32,6.32,0,0,1,1.11-1.43,4.14,4.14,0,0,0,.23-4.78c-.73-1.1-2-1.56-2.8-2.51C159.29,279.74,159.07,279,157.84,279Z" />
  <path
     id="path1937"
     fill="#f3bd8f"
     transform="translate(-49.06 -21.81)"
     d="M158,279.9a3,3,0,0,0-.94,1.34,1.9,1.9,0,0,0,.08,1.08,3.7,3.7,0,0,0,1.36,1.74,2.53,2.53,0,0,0,1.48.56,2.89,2.89,0,0,0,1.14-.34,13.91,13.91,0,0,0,3.67-2.49,3.43,3.43,0,0,0,1.2-1.85,3.75,3.75,0,0,0-.11-1.33c-.09-.43-.2-.85-.3-1.28a1.89,1.89,0,0,0-.18-.52,1.92,1.92,0,0,0-.37-.44,5.9,5.9,0,0,0-2-1.45c-.71-.26-.94.09-1.34.64A36.49,36.49,0,0,1,158,279.9Z" />
  <path
     id="path1939"
     fill="#3e3e54"
     transform="translate(-49.06 -21.81)"
     d="M205.05,214.08c-.71,5.72-3.89,17.21-5.47,22.78-3.13,11-4.12,17.17-11.21,26.18A85.19,85.19,0,0,1,175,276.58c-3,2.43-6.34,4.71-10.13,5.57-.84-1.72-3-2.41-4-4-.05-.08-.09-.16-.14-.23-1-1.88-.06-4.18.92-6.08A236.49,236.49,0,0,1,175,249.09a16.07,16.07,0,0,0,2-3.56,16.81,16.81,0,0,0,.65-3.67c.2-1.69.47-3.36.8-5a143.43,143.43,0,0,1,5.16-17.72,17.39,17.39,0,0,1,2.76-5.71c2.37-2.82,6.25-3.84,9.9-4.36C201.89,208.24,205.88,207.42,205.05,214.08Z" />
  <path
     id="path1941"
     fill="#5fcf80"
     transform="translate(-49.06 -21.81)"
     d="M123.41,224.49a6.08,6.08,0,0,0-2.17-1.05,7.2,7.2,0,0,0-3.92-.52c-2,.49-3.12,2.51-4,4.36a23.48,23.48,0,0,0-2,5.8,10,10,0,0,0,.68,6,1.49,1.49,0,0,0,.51.67,1.57,1.57,0,0,0,1.29,0,8,8,0,0,0,4.25-3.35,4.48,4.48,0,0,1,1.46-1.8,5.76,5.76,0,0,1,1.77-.38,4.16,4.16,0,0,0,3.25-3.52c.14-1.31-.51-2.45-.54-3.72C124,226,124.33,225.29,123.41,224.49Z" />
  <path
     id="path1943"
     fill="url(#linear-gradient)"
     transform="translate(-49.06 -21.81)"
     d="M157.84,279a6.21,6.21,0,0,0-2.33.59,7.12,7.12,0,0,0-3.34,2.12c-1.2,1.64-.79,3.93-.24,5.89a23.33,23.33,0,0,0,2.22,5.71,10,10,0,0,0,4.38,4.17,1.49,1.49,0,0,0,.82.18,1.56,1.56,0,0,0,1-.83,8,8,0,0,0,1.11-5.3,4.42,4.42,0,0,1,0-2.31,6.32,6.32,0,0,1,1.11-1.43,4.14,4.14,0,0,0,.23-4.78c-.73-1.1-2-1.56-2.8-2.51C159.29,279.74,159.07,279,157.84,279Z" />
  <path
     id="path1945"
     fill="url(#linear-gradient-2)"
     transform="translate(-49.06 -21.81)"
     d="M123.41,224.49a6.08,6.08,0,0,0-2.17-1.05,7.2,7.2,0,0,0-3.92-.52c-2,.49-3.12,2.51-4,4.36a23.48,23.48,0,0,0-2,5.8,10,10,0,0,0,.68,6,1.49,1.49,0,0,0,.51.67,1.57,1.57,0,0,0,1.29,0,8,8,0,0,0,4.25-3.35,4.48,4.48,0,0,1,1.46-1.8,5.76,5.76,0,0,1,1.77-.38,4.16,4.16,0,0,0,3.25-3.52c.14-1.31-.51-2.45-.54-3.72C124,226,124.33,225.29,123.41,224.49Z" />
  <path
     id="path1947"
     fill="#f3bd8f"
     transform="translate(-49.06 -21.81)"
     d="M123.88,226.35a3.1,3.1,0,0,0-1.63.14,2,2,0,0,0-.78.77,3.72,3.72,0,0,0-.44,2.15,2.51,2.51,0,0,0,.53,1.5,2.75,2.75,0,0,0,1,.65,14.17,14.17,0,0,0,4.27,1.2,3.41,3.41,0,0,0,2.19-.29,3.61,3.61,0,0,0,.94-.93c.27-.35.52-.7.78-1.06A2.29,2.29,0,0,0,131,230a2.19,2.19,0,0,0,.09-.57A6,6,0,0,0,131,227c-.26-.7-.68-.66-1.36-.61A36.28,36.28,0,0,1,123.88,226.35Z" />
  <path
     id="path1949"
     fill="#3e3e54"
     transform="translate(-49.06 -21.81)"
     d="M193.19,216.2a3.27,3.27,0,0,1-1.24,1.9c-6.1,5.69-8.25,13.22-14.34,18.91a17.61,17.61,0,0,1-4.79,3.54c-1.47.64-20.68.31-26.72.31s-12.54-.47-17.68-3.78a4.15,4.15,0,0,1-1.61-1.58,4.82,4.82,0,0,1-.18-2.77,18.23,18.23,0,0,1,1.22-5,6.41,6.41,0,0,1,1.92-2.54c2-1.53,4.74-1.49,7.25-1.42a214,214,0,0,0,26.91-.93,3.24,3.24,0,0,0,1.63-.45,3.34,3.34,0,0,0,1-1.9A107.52,107.52,0,0,1,170.91,208c.91-2.15,3-9.3,5.53-10.13l.19-.05c2.68-.53,7.18,5.41,8.78,7.17a66.25,66.25,0,0,1,7.1,9.32A3.11,3.11,0,0,1,193.19,216.2Z" />
  <path
     id="path1951"
     fill="#f3bd8f"
     transform="translate(-49.06 -21.81)"
     d="M142.21,179.05a6.52,6.52,0,0,1,.93-3.55,16.73,16.73,0,0,1,10.19-8.25c.88,1.59,1.75,3.12,2.62,4.71a3.6,3.6,0,0,1,.54,1.39,4.44,4.44,0,0,1-.84,2.4,12.36,12.36,0,0,0-1.3,3.62,3.9,3.9,0,0,1-.57,1.75,1.12,1.12,0,0,1-1.61.25,10.21,10.21,0,0,0-.5-4.07c-1.33.52-2,1.95-2.47,3.29a9.17,9.17,0,0,1-1.79,3.82c-.2.21-.5.4-.76.28s-.31-.52-.29-.84l.2-3.18a3.61,3.61,0,0,1-2.43,3.41,7.08,7.08,0,0,1,.56-4.87c-.41.44-.46,1.1-.76,1.62s-1.14.84-1.45.32a1,1,0,0,1-.06-.7,19.94,19.94,0,0,1,.91-3.81l-.81,2.22C142.36,179,142.36,179.17,142.21,179.05Z" />
  <path
     id="path1953"
     fill="#5fcf80"
     transform="translate(-49.06 -21.81)"
     d="M282.13,130.47a10.87,10.87,0,0,1-2.37,4.09c-2.94,3.42-6.83,5.85-10.55,8.39-9.89,6.75-19,14.66-29.7,20.12-2.87,1.47-5.89,2.79-8.23,5a21.48,21.48,0,0,0-3.46,4.57,47.88,47.88,0,0,0-4.19,8.9c-2,5.57-4.67,10.81-6.88,16.28-2.37,5.87-4.9,11.73-8.64,16.83-2.51,3.42-5.79,6.61-10,7.45-4,.79-8.18-.77-11.41-3.25s-5.65-5.79-8-9.06l-.06-.07c-.59-.81-1.19-1.64-1.72-2.51a11.24,11.24,0,0,1-1.63-3.9,10.44,10.44,0,0,1-.14-1.47c0-2.84,1.23-5.63,2.47-8.24q6.83-14.37,13.65-28.73s0,0,0-.08a54.71,54.71,0,0,0-24.14,6.69,29.7,29.7,0,0,1-6.34,3,7.36,7.36,0,0,1-6.67-1.12c-2.42-2.13-2.32-6.13-.64-8.88s4.53-4.55,7.29-6.23c10.36-6.26,21.61-12.35,33.72-12,4.82.14,11.82-.89,16.62-.36,10.11,1.11,19.59,3.87,27.77-2.17a151.6,151.6,0,0,1,18.16-12.1c4.46-2.38,9.16-4.32,13.84-6.25a17.39,17.39,0,0,1,5.47-1.57,5.8,5.8,0,0,1,5.08,2.08A5.48,5.48,0,0,1,282.13,130.47Z" />
  <path
     id="path1955"
     fill="#f3bd8f"
     transform="translate(-49.06 -21.81)"
     d="M214.75,130.31l-.51-.75a4.3,4.3,0,0,0-.93-1.06,1.36,1.36,0,0,0-1.34-.19c-.63.3-1.36.63-1.41,1.33a9.43,9.43,0,0,0,1.07,4.46,7.65,7.65,0,0,1,1.09,2,4.6,4.6,0,0,1,0,1.23c-.17,3.36,1.32,6.84.19,10-.39,1.08-1.07,2.1-1,3.25a3.39,3.39,0,0,0,1.07,2.23,6.62,6.62,0,0,0,2.16,1.31,13.37,13.37,0,0,0,3.8.92,2.72,2.72,0,0,0,2.85-1.18,14.92,14.92,0,0,0,2.45-4.09,57.59,57.59,0,0,1,5.72-3c5.53-2.34,8.19-8.74,8.85-14.71.31-2.75.28-5.66-1-8.11a10.14,10.14,0,0,0-8.56-5.14,14.22,14.22,0,0,0-9.56,3.59C217.4,124.33,214.54,127.3,214.75,130.31Z" />
  <path
     id="path1957"
     fill="#3e3e54"
     transform="translate(-49.06 -21.81)"
     d="M236.2,116c-2.13-1.63-5-1.69-7.52-2.72a23.16,23.16,0,0,0-2.52-1.06c-2.47-.69-5,.47-7.32,1.64a14.73,14.73,0,0,0-3.63,2.39c-1.51,1.48-2.33,3.53-3.7,5.14s-3.26,2.71-4.9,4.06-3.13,3.13-3.27,5.25c-.17,2.65,1.81,4.95,3.91,6.59s4.51,3,5.85,5.35l.56-4.72a3,3,0,0,0,0-1.34,3.89,3.89,0,0,0-.81-1.18,8.17,8.17,0,0,1-1.87-5.46c0-.56.17-1.22.7-1.42s1.25.37,1.66.92l2.6,3.51a10.91,10.91,0,0,1,3.14-10.09A14.29,14.29,0,0,1,229.13,119c2.06,0,4.31.54,5.55,2.19s3,4.94,3.72.74A6.3,6.3,0,0,0,236.2,116Z" />
  <path
     id="path1959"
     fill="#f3bd8f"
     transform="translate(-49.06 -21.81)"
     d="M280.43,120a17.1,17.1,0,0,1,2-4.13,9.77,9.77,0,0,1,2.63-2,.69.69,0,0,1,.53-.14.58.58,0,0,1,.33.46c.28,1.1-.36,2.24-.26,3.37a.37.37,0,0,0,.11.27c.15.12.36,0,.5-.13a45,45,0,0,1,4.45-3.72,8.84,8.84,0,0,1,5.44-1.71c0,1.54-1.29,2.73-2.5,3.69a11.32,11.32,0,0,1,5.52-2.47c.37.57-.14,1.29-.62,1.78l-3.33,3.37a10.53,10.53,0,0,1,4.66-1.82.82.82,0,0,1,.49,0,.6.6,0,0,1,.23.75,1.63,1.63,0,0,1-.53.67,36.28,36.28,0,0,1-6.12,4.41,14.45,14.45,0,0,1,3.87-1.18,1.85,1.85,0,0,1-.73,1.84,13.43,13.43,0,0,1-2.81,1.89,17.65,17.65,0,0,1-6.06,2.46c-1.36.18-2.82.07-4,.75-.55.32-1,.8-1.52,1.16a4.34,4.34,0,0,1-3.59.67,3.92,3.92,0,0,1-2.48-2.11,3.43,3.43,0,0,1,.51-3.88A13.46,13.46,0,0,0,280.43,120Z" />
  <path
     id="path1961"
     fill="url(#linear-gradient-3)"
     transform="translate(-49.06 -21.81)"
     d="M194.67,174.74a142,142,0,0,0-10.44,23.56c-1.36,4.07-2.64,8.34-5.51,11.5a1.42,1.42,0,0,1-.2.22,20.91,20.91,0,0,1-1.58-2.8,23.49,23.49,0,0,1-1.77-5.37c0-2.84,1.23-5.63,2.47-8.24q6.83-14.37,13.65-28.73c1.62-.15,3.46.58,5.49,2.91C198.41,169.65,195.87,172.58,194.67,174.74Z" />
  <path
     id="path1963"
     fill="url(#linear-gradient-4)"
     transform="translate(-49.06 -21.81)"
     d="M178.1,209c-.42,1.77-1.79,3.35-2.48,5-1.51,3.68-1.89,9.08-5.32,11.64-2.46,2.19-6,2.71-9.23,3-9.65.88-19.37.68-29,.47a5.94,5.94,0,0,1-3.71-.89,2.86,2.86,0,0,1-.46-.46,6.41,6.41,0,0,1,1.92-2.54c2-1.53,4.74-1.49,7.25-1.42a214,214,0,0,0,26.91-.93,3.24,3.24,0,0,0,1.63-.45,3.34,3.34,0,0,0,1-1.9A107.52,107.52,0,0,1,170.91,208c.91-2.15,3-9.3,5.53-10.13a8.65,8.65,0,0,1,1,3.41C177.73,203.63,178.67,206.59,178.1,209Z" />
  <path
     id="path1965"
     fill="url(#linear-gradient-5)"
     transform="translate(-49.06 -21.81)"
     d="M161.76,277.46a4.34,4.34,0,0,1-.92.69c-.05-.08-.09-.16-.14-.23-1-1.88-.06-4.18.92-6.08A236.49,236.49,0,0,1,175,249.09a16.07,16.07,0,0,0,2-3.56,16.81,16.81,0,0,0,.65-3.67c.2-1.69.47-3.36.8-5,2.53-2.08,6.54-4.23,6.54-5,.17,3.74.27,7.46.3,11.21C185.22,245.27,164.81,274.74,161.76,277.46Z" />
  <path
     id="path1967"
     fill="url(#linear-gradient-6)"
     transform="translate(-49.06 -21.81)"
     d="M212.63,130.61a.67.67,0,0,0-.69.37,1.18,1.18,0,0,0-.06.83,7.52,7.52,0,0,0,.32.78,6.22,6.22,0,0,0,.69,1.39,1.32,1.32,0,0,0,1.35.56.73.73,0,0,0,.3-.19.84.84,0,0,0,.12-.45,3.59,3.59,0,0,0-.6-2.1,2.71,2.71,0,0,0-.6-.52C213.2,131.06,213,130.68,212.63,130.61Z" />
  <rect
     id="rect1969"
     fill="#5fcf80"
     transform="translate(30.26 -127.81) rotate(23.67)"
     rx="2.36"
     height="11.3"
     width="23.66"
     y="130.59"
     x="280.71" />
  <rect
     id="rect1971"
     fill="#5fcf80"
     transform="translate(30.34 -127.82) rotate(23.67)"
     rx="1.98"
     height="4.1"
     width="26.46"
     y="134.38"
     x="279.37" />
  <path
     id="path1973"
     fill="#5fcf80"
     transform="translate(-49.06 -21.81)"
     d="M327.12,111.5a20.79,20.79,0,0,1-6.05,7.9l-16.5,16.21-19.28-8.45,1.77-24a20.91,20.91,0,1,1,40.06,8.3Z" />
  <path
     id="path1975"
     style="isolation:isolate"
     fill="url(#radial-gradient)"
     opacity="0.69"
     transform="translate(-49.06 -21.81)"
     d="M327.12,111.5a20.79,20.79,0,0,1-6.05,7.9l-16.5,16.21-19.28-8.45,1.77-24a20.91,20.91,0,1,1,40.06,8.3Z" />
  <path
     id="path1977"
     stroke-width="0.8"
     stroke-miterlimit="10"
     stroke="none"
     fill="none"
     transform="translate(-49.06 -21.81)"
     d="M292.2,130.56a48.21,48.21,0,0,1,3.92-20.72c.63-1.46,1.61-3.09,3.19-3.24,1.95-.18,3.29,2,3.46,4a9,9,0,0,1-2.51,7,9.75,9.75,0,0,1,.54-5.32,8.84,8.84,0,0,1,1.8-3.53,3.46,3.46,0,0,1,3.64-1c1.9.76,2.2,3.4,1.59,5.36a10.5,10.5,0,0,1-4.07,5.49,7.86,7.86,0,0,1,4.57-6.41,4.5,4.5,0,0,1,2.72-.39,2.49,2.49,0,0,1,1.94,1.8,3.29,3.29,0,0,1-.15,1.58c-1,3.75-3.83,6.75-6.77,9.31s-6.16,4.84-8.57,7.9" />
  <rect
     id="rect1979"
     fill="url(#linear-gradient-7)"
     transform="translate(30.26 -127.81) rotate(23.67)"
     rx="2.36"
     height="11.3"
     width="23.66"
     y="130.59"
     x="280.71" />
  <rect
     id="rect1981"
     fill="url(#linear-gradient-8)"
     transform="translate(30.34 -127.82) rotate(23.67)"
     rx="1.98"
     height="4.1"
     width="26.46"
     y="134.38"
     x="279.37" />
</svg>
